<svg xmlns="http://www.w3.org/2000/svg" viewBox="0 0 78.13 79.23"><defs><style>.cls-1{fill:#eac039;}</style></defs><title>saveforlater</title><g id="Layer_2" data-name="Layer 2"><g id="Layer_1-2" data-name="Layer 1"><path class="cls-1" d="M26.21,51.77V26.16a4.47,4.47,0,0,1,6.88-3.78L53.21,35.19a4.48,4.48,0,0,1,0,7.55L33.09,55.54A4.47,4.47,0,0,1,26.21,51.77Z"/><path class="cls-1" d="M67.32,61.36a35.22,35.22,0,1,1-3.85-47.65,2.2,2.2,0,1,0,3-3.23,39.61,39.61,0,1,0,4.33,53.6,2.2,2.2,0,0,0-3.46-2.72Z"/><circle class="cls-1" cx="69.33" cy="18.71" r="8.8"/></g></g></svg>